<mxfile host="Electron" modified="2024-02-26T11:23:00.607Z" agent="Mozilla/5.0 (Windows NT 10.0; Win64; x64) AppleWebKit/537.36 (KHTML, like Gecko) draw.io/23.1.5 Chrome/120.0.6099.109 Electron/28.1.0 Safari/537.36" etag="89hlzoWglnx8W2lSYkMM" version="23.1.5" type="device">
  <diagram name="Страница — 1" id="mSCeDjWPUj1bW5cWFaKn">
    <mxGraphModel dx="1358" dy="704" grid="1" gridSize="10" guides="1" tooltips="1" connect="1" arrows="1" fold="1" page="1" pageScale="1" pageWidth="827" pageHeight="1169" math="0" shadow="0">
      <root>
        <mxCell id="0" />
        <mxCell id="1" parent="0" />
        <mxCell id="MuIGgH-98gRfrbw5etAs-4" value="" style="edgeStyle=orthogonalEdgeStyle;rounded=0;orthogonalLoop=1;jettySize=auto;html=1;" edge="1" parent="1" source="MuIGgH-98gRfrbw5etAs-2" target="MuIGgH-98gRfrbw5etAs-3">
          <mxGeometry relative="1" as="geometry" />
        </mxCell>
        <mxCell id="MuIGgH-98gRfrbw5etAs-2" value="struct Stadium {" style="ellipse;whiteSpace=wrap;html=1;" vertex="1" parent="1">
          <mxGeometry x="180" y="20" width="120" height="50" as="geometry" />
        </mxCell>
        <mxCell id="MuIGgH-98gRfrbw5etAs-6" value="" style="edgeStyle=orthogonalEdgeStyle;rounded=0;orthogonalLoop=1;jettySize=auto;html=1;" edge="1" parent="1" source="MuIGgH-98gRfrbw5etAs-3" target="MuIGgH-98gRfrbw5etAs-5">
          <mxGeometry relative="1" as="geometry" />
        </mxCell>
        <mxCell id="MuIGgH-98gRfrbw5etAs-3" value="string name;" style="rounded=0;whiteSpace=wrap;html=1;" vertex="1" parent="1">
          <mxGeometry x="195" y="100" width="90" height="30" as="geometry" />
        </mxCell>
        <mxCell id="MuIGgH-98gRfrbw5etAs-8" value="" style="edgeStyle=orthogonalEdgeStyle;rounded=0;orthogonalLoop=1;jettySize=auto;html=1;" edge="1" parent="1" source="MuIGgH-98gRfrbw5etAs-5" target="MuIGgH-98gRfrbw5etAs-7">
          <mxGeometry relative="1" as="geometry" />
        </mxCell>
        <mxCell id="MuIGgH-98gRfrbw5etAs-5" value="&lt;div&gt;int date_build;&lt;/div&gt;" style="rounded=0;whiteSpace=wrap;html=1;" vertex="1" parent="1">
          <mxGeometry x="195" y="150" width="90" height="30" as="geometry" />
        </mxCell>
        <mxCell id="MuIGgH-98gRfrbw5etAs-10" value="" style="edgeStyle=orthogonalEdgeStyle;rounded=0;orthogonalLoop=1;jettySize=auto;html=1;" edge="1" parent="1" source="MuIGgH-98gRfrbw5etAs-7" target="MuIGgH-98gRfrbw5etAs-9">
          <mxGeometry relative="1" as="geometry" />
        </mxCell>
        <mxCell id="MuIGgH-98gRfrbw5etAs-7" value="&lt;div&gt;int cnt_pl;&lt;/div&gt;" style="rounded=0;whiteSpace=wrap;html=1;" vertex="1" parent="1">
          <mxGeometry x="195" y="200" width="90" height="30" as="geometry" />
        </mxCell>
        <mxCell id="MuIGgH-98gRfrbw5etAs-12" value="" style="edgeStyle=orthogonalEdgeStyle;rounded=0;orthogonalLoop=1;jettySize=auto;html=1;" edge="1" parent="1" source="MuIGgH-98gRfrbw5etAs-9">
          <mxGeometry relative="1" as="geometry">
            <mxPoint x="240" y="330" as="targetPoint" />
          </mxGeometry>
        </mxCell>
        <mxCell id="MuIGgH-98gRfrbw5etAs-9" value="&lt;div&gt;string sport;&lt;/div&gt;" style="rounded=0;whiteSpace=wrap;html=1;" vertex="1" parent="1">
          <mxGeometry x="195" y="260" width="90" height="30" as="geometry" />
        </mxCell>
        <mxCell id="MuIGgH-98gRfrbw5etAs-14" value="&lt;div&gt;void enter_info(string str, int d, int c, string sprt) {&lt;/div&gt;&lt;div&gt;name = str;&lt;span style=&quot;&quot;&gt;&lt;/span&gt;&lt;/div&gt;&lt;div&gt;&lt;span style=&quot;&quot;&gt;&lt;span style=&quot;&quot;&gt;&lt;span style=&quot;white-space: pre;&quot;&gt;&amp;nbsp;&amp;nbsp;&amp;nbsp;&amp;nbsp;&lt;/span&gt;&lt;/span&gt;date_build = d;&lt;/span&gt;&lt;/div&gt;&lt;div&gt;&lt;span style=&quot;&quot;&gt;&lt;span style=&quot;&quot;&gt;&lt;span style=&quot;white-space: pre;&quot;&gt;&amp;nbsp;&amp;nbsp;&amp;nbsp;&amp;nbsp;&lt;/span&gt;&lt;/span&gt;cnt_pl = c;&lt;/span&gt;&lt;/div&gt;&lt;div&gt;&lt;span style=&quot;&quot;&gt;&lt;span style=&quot;&quot;&gt;&lt;span style=&quot;white-space: pre;&quot;&gt;&amp;nbsp;&amp;nbsp;&amp;nbsp;&amp;nbsp;&lt;/span&gt;&lt;/span&gt;sport = sprt;&lt;/span&gt;&lt;span style=&quot;background-color: initial;&quot;&gt;}&lt;/span&gt;&lt;/div&gt;&lt;div&gt;&lt;span style=&quot;background-color: initial;&quot;&gt;};&lt;/span&gt;&lt;/div&gt;" style="shape=process;whiteSpace=wrap;html=1;backgroundOutline=1;" vertex="1" parent="1">
          <mxGeometry x="112.5" y="330" width="255" height="120" as="geometry" />
        </mxCell>
        <mxCell id="MuIGgH-98gRfrbw5etAs-18" value="" style="edgeStyle=orthogonalEdgeStyle;rounded=0;orthogonalLoop=1;jettySize=auto;html=1;" edge="1" parent="1" source="MuIGgH-98gRfrbw5etAs-15" target="MuIGgH-98gRfrbw5etAs-17">
          <mxGeometry relative="1" as="geometry" />
        </mxCell>
        <mxCell id="MuIGgH-98gRfrbw5etAs-15" value="Начало" style="ellipse;whiteSpace=wrap;html=1;" vertex="1" parent="1">
          <mxGeometry x="550" y="20" width="100" height="45" as="geometry" />
        </mxCell>
        <mxCell id="MuIGgH-98gRfrbw5etAs-19" style="edgeStyle=orthogonalEdgeStyle;rounded=0;orthogonalLoop=1;jettySize=auto;html=1;" edge="1" parent="1" source="MuIGgH-98gRfrbw5etAs-16">
          <mxGeometry relative="1" as="geometry">
            <mxPoint x="600" y="150" as="targetPoint" />
          </mxGeometry>
        </mxCell>
        <mxCell id="MuIGgH-98gRfrbw5etAs-16" value="&lt;div&gt;#include &amp;lt;iostream&amp;gt;&lt;/div&gt;&lt;div&gt;#include &amp;lt;string&amp;gt;&lt;/div&gt;&lt;div&gt;#include &amp;lt;fstream&amp;gt;&lt;/div&gt;&lt;div&gt;&lt;br&gt;&lt;/div&gt;&lt;div&gt;using namespace std;&lt;/div&gt;&lt;div&gt;&lt;div&gt;int main()&lt;/div&gt;&lt;div&gt;{&lt;/div&gt;&lt;div&gt;setlocale(LC_ALL, &quot;Ru&quot;);&lt;span style=&quot;&quot;&gt;&lt;/span&gt;&lt;/div&gt;&lt;div&gt;&lt;span style=&quot;&quot;&gt;&lt;span style=&quot;&quot;&gt;&lt;span style=&quot;white-space: pre;&quot;&gt;&amp;nbsp;&amp;nbsp;&amp;nbsp;&amp;nbsp;&lt;/span&gt;&lt;/span&gt;system(&quot;chcp 1251&quot;);&lt;/span&gt;&lt;/div&gt;&lt;div&gt;&lt;span style=&quot;&quot;&gt;&lt;span style=&quot;&quot;&gt;&lt;span style=&quot;white-space: pre;&quot;&gt;&amp;nbsp;&amp;nbsp;&amp;nbsp;&amp;nbsp;&lt;/span&gt;&lt;/span&gt;const int n = 5;&lt;/span&gt;&lt;/div&gt;&lt;/div&gt;" style="strokeWidth=2;html=1;shape=mxgraph.flowchart.annotation_1;align=left;pointerEvents=1;" vertex="1" parent="1">
          <mxGeometry x="680" y="70" width="150" height="160" as="geometry" />
        </mxCell>
        <mxCell id="MuIGgH-98gRfrbw5etAs-21" value="" style="edgeStyle=orthogonalEdgeStyle;rounded=0;orthogonalLoop=1;jettySize=auto;html=1;" edge="1" parent="1" source="MuIGgH-98gRfrbw5etAs-17" target="MuIGgH-98gRfrbw5etAs-20">
          <mxGeometry relative="1" as="geometry" />
        </mxCell>
        <mxCell id="MuIGgH-98gRfrbw5etAs-17" value="int k = 0;" style="whiteSpace=wrap;html=1;" vertex="1" parent="1">
          <mxGeometry x="555" y="280" width="90" height="40" as="geometry" />
        </mxCell>
        <mxCell id="MuIGgH-98gRfrbw5etAs-23" value="" style="edgeStyle=orthogonalEdgeStyle;rounded=0;orthogonalLoop=1;jettySize=auto;html=1;" edge="1" parent="1" source="MuIGgH-98gRfrbw5etAs-20" target="MuIGgH-98gRfrbw5etAs-22">
          <mxGeometry relative="1" as="geometry" />
        </mxCell>
        <mxCell id="MuIGgH-98gRfrbw5etAs-20" value="int fn = 2;" style="whiteSpace=wrap;html=1;" vertex="1" parent="1">
          <mxGeometry x="555" y="340" width="90" height="40" as="geometry" />
        </mxCell>
        <mxCell id="MuIGgH-98gRfrbw5etAs-25" value="" style="edgeStyle=orthogonalEdgeStyle;rounded=0;orthogonalLoop=1;jettySize=auto;html=1;" edge="1" parent="1" source="MuIGgH-98gRfrbw5etAs-22" target="MuIGgH-98gRfrbw5etAs-24">
          <mxGeometry relative="1" as="geometry" />
        </mxCell>
        <mxCell id="MuIGgH-98gRfrbw5etAs-22" value="int min;" style="whiteSpace=wrap;html=1;" vertex="1" parent="1">
          <mxGeometry x="555" y="400" width="90" height="40" as="geometry" />
        </mxCell>
        <mxCell id="MuIGgH-98gRfrbw5etAs-27" value="" style="edgeStyle=orthogonalEdgeStyle;rounded=0;orthogonalLoop=1;jettySize=auto;html=1;" edge="1" parent="1" source="MuIGgH-98gRfrbw5etAs-24" target="MuIGgH-98gRfrbw5etAs-26">
          <mxGeometry relative="1" as="geometry" />
        </mxCell>
        <mxCell id="MuIGgH-98gRfrbw5etAs-24" value="struct Stadium s[n];" style="rounded=0;whiteSpace=wrap;html=1;" vertex="1" parent="1">
          <mxGeometry x="540" y="470" width="120" height="50" as="geometry" />
        </mxCell>
        <mxCell id="MuIGgH-98gRfrbw5etAs-47" value="" style="edgeStyle=orthogonalEdgeStyle;rounded=0;orthogonalLoop=1;jettySize=auto;html=1;" edge="1" parent="1" source="MuIGgH-98gRfrbw5etAs-26" target="MuIGgH-98gRfrbw5etAs-28">
          <mxGeometry relative="1" as="geometry" />
        </mxCell>
        <mxCell id="MuIGgH-98gRfrbw5etAs-49" style="edgeStyle=orthogonalEdgeStyle;rounded=0;orthogonalLoop=1;jettySize=auto;html=1;entryX=0.5;entryY=0;entryDx=0;entryDy=0;" edge="1" parent="1" source="MuIGgH-98gRfrbw5etAs-26" target="MuIGgH-98gRfrbw5etAs-48">
          <mxGeometry relative="1" as="geometry" />
        </mxCell>
        <mxCell id="MuIGgH-98gRfrbw5etAs-26" value="for (int i = 0; i &amp;lt; fn; i++) {" style="shape=hexagon;perimeter=hexagonPerimeter2;whiteSpace=wrap;html=1;fixedSize=1;" vertex="1" parent="1">
          <mxGeometry x="515" y="565" width="170" height="40" as="geometry" />
        </mxCell>
        <mxCell id="MuIGgH-98gRfrbw5etAs-30" value="" style="edgeStyle=orthogonalEdgeStyle;rounded=0;orthogonalLoop=1;jettySize=auto;html=1;" edge="1" parent="1" source="MuIGgH-98gRfrbw5etAs-28" target="MuIGgH-98gRfrbw5etAs-29">
          <mxGeometry relative="1" as="geometry" />
        </mxCell>
        <mxCell id="MuIGgH-98gRfrbw5etAs-28" value="&lt;div&gt;cout &amp;lt;&amp;lt; &quot;Название стадиона: &quot; &amp;lt;&amp;lt; endl;&lt;/div&gt;" style="shape=parallelogram;perimeter=parallelogramPerimeter;whiteSpace=wrap;html=1;fixedSize=1;" vertex="1" parent="1">
          <mxGeometry x="520" y="640" width="160" height="60" as="geometry" />
        </mxCell>
        <mxCell id="MuIGgH-98gRfrbw5etAs-32" value="" style="edgeStyle=orthogonalEdgeStyle;rounded=0;orthogonalLoop=1;jettySize=auto;html=1;" edge="1" parent="1" source="MuIGgH-98gRfrbw5etAs-29" target="MuIGgH-98gRfrbw5etAs-31">
          <mxGeometry relative="1" as="geometry" />
        </mxCell>
        <mxCell id="MuIGgH-98gRfrbw5etAs-29" value="&lt;div&gt;cin &amp;gt;&amp;gt; s[i].name;&lt;/div&gt;" style="shape=parallelogram;perimeter=parallelogramPerimeter;whiteSpace=wrap;html=1;fixedSize=1;" vertex="1" parent="1">
          <mxGeometry x="530" y="730" width="140" height="30" as="geometry" />
        </mxCell>
        <mxCell id="MuIGgH-98gRfrbw5etAs-34" value="" style="edgeStyle=orthogonalEdgeStyle;rounded=0;orthogonalLoop=1;jettySize=auto;html=1;" edge="1" parent="1" source="MuIGgH-98gRfrbw5etAs-31" target="MuIGgH-98gRfrbw5etAs-33">
          <mxGeometry relative="1" as="geometry" />
        </mxCell>
        <mxCell id="MuIGgH-98gRfrbw5etAs-31" value="&lt;div&gt;cout &amp;lt;&amp;lt; &quot;Дата постройки: &quot; &amp;lt;&amp;lt; endl;&lt;/div&gt;" style="shape=parallelogram;perimeter=parallelogramPerimeter;whiteSpace=wrap;html=1;fixedSize=1;" vertex="1" parent="1">
          <mxGeometry x="475" y="790" width="250" height="40" as="geometry" />
        </mxCell>
        <mxCell id="MuIGgH-98gRfrbw5etAs-36" value="" style="edgeStyle=orthogonalEdgeStyle;rounded=0;orthogonalLoop=1;jettySize=auto;html=1;" edge="1" parent="1" source="MuIGgH-98gRfrbw5etAs-33" target="MuIGgH-98gRfrbw5etAs-35">
          <mxGeometry relative="1" as="geometry" />
        </mxCell>
        <mxCell id="MuIGgH-98gRfrbw5etAs-33" value="&lt;div&gt;cin &amp;gt;&amp;gt; s[i].date_build;&lt;/div&gt;" style="shape=parallelogram;perimeter=parallelogramPerimeter;whiteSpace=wrap;html=1;fixedSize=1;" vertex="1" parent="1">
          <mxGeometry x="520" y="860" width="160" height="40" as="geometry" />
        </mxCell>
        <mxCell id="MuIGgH-98gRfrbw5etAs-38" value="" style="edgeStyle=orthogonalEdgeStyle;rounded=0;orthogonalLoop=1;jettySize=auto;html=1;" edge="1" parent="1" source="MuIGgH-98gRfrbw5etAs-35" target="MuIGgH-98gRfrbw5etAs-37">
          <mxGeometry relative="1" as="geometry" />
        </mxCell>
        <mxCell id="MuIGgH-98gRfrbw5etAs-35" value="&lt;div&gt;cout &amp;lt;&amp;lt; &quot;Количество площадок на стадионе: &quot; &amp;lt;&amp;lt; endl;&lt;/div&gt;" style="shape=parallelogram;perimeter=parallelogramPerimeter;whiteSpace=wrap;html=1;fixedSize=1;" vertex="1" parent="1">
          <mxGeometry x="485" y="930" width="230" height="60" as="geometry" />
        </mxCell>
        <mxCell id="MuIGgH-98gRfrbw5etAs-40" value="" style="edgeStyle=orthogonalEdgeStyle;rounded=0;orthogonalLoop=1;jettySize=auto;html=1;" edge="1" parent="1" source="MuIGgH-98gRfrbw5etAs-37" target="MuIGgH-98gRfrbw5etAs-39">
          <mxGeometry relative="1" as="geometry" />
        </mxCell>
        <mxCell id="MuIGgH-98gRfrbw5etAs-37" value="&lt;div&gt;cin &amp;gt;&amp;gt; s[i].cnt_pl;&lt;/div&gt;" style="shape=parallelogram;perimeter=parallelogramPerimeter;whiteSpace=wrap;html=1;fixedSize=1;" vertex="1" parent="1">
          <mxGeometry x="530" y="1020" width="140" height="40" as="geometry" />
        </mxCell>
        <mxCell id="MuIGgH-98gRfrbw5etAs-42" value="" style="edgeStyle=orthogonalEdgeStyle;rounded=0;orthogonalLoop=1;jettySize=auto;html=1;" edge="1" parent="1" source="MuIGgH-98gRfrbw5etAs-39" target="MuIGgH-98gRfrbw5etAs-41">
          <mxGeometry relative="1" as="geometry" />
        </mxCell>
        <mxCell id="MuIGgH-98gRfrbw5etAs-39" value="&lt;div&gt;cout &amp;lt;&amp;lt; &quot;Вид спорта: &quot; &amp;lt;&amp;lt; endl;&lt;/div&gt;" style="shape=parallelogram;perimeter=parallelogramPerimeter;whiteSpace=wrap;html=1;fixedSize=1;" vertex="1" parent="1">
          <mxGeometry x="490" y="1080" width="220" height="50" as="geometry" />
        </mxCell>
        <mxCell id="MuIGgH-98gRfrbw5etAs-45" value="" style="edgeStyle=orthogonalEdgeStyle;rounded=0;orthogonalLoop=1;jettySize=auto;html=1;" edge="1" parent="1" source="MuIGgH-98gRfrbw5etAs-41" target="MuIGgH-98gRfrbw5etAs-43">
          <mxGeometry relative="1" as="geometry" />
        </mxCell>
        <mxCell id="MuIGgH-98gRfrbw5etAs-41" value="&lt;div&gt;cin &amp;gt;&amp;gt; s[i].sport;&lt;/div&gt;" style="shape=parallelogram;perimeter=parallelogramPerimeter;whiteSpace=wrap;html=1;fixedSize=1;" vertex="1" parent="1">
          <mxGeometry x="535" y="1160" width="130" height="40" as="geometry" />
        </mxCell>
        <mxCell id="MuIGgH-98gRfrbw5etAs-46" style="edgeStyle=orthogonalEdgeStyle;rounded=0;orthogonalLoop=1;jettySize=auto;html=1;entryX=0;entryY=0.5;entryDx=0;entryDy=0;" edge="1" parent="1" source="MuIGgH-98gRfrbw5etAs-43" target="MuIGgH-98gRfrbw5etAs-26">
          <mxGeometry relative="1" as="geometry">
            <Array as="points">
              <mxPoint x="600" y="1320" />
              <mxPoint x="420" y="1320" />
              <mxPoint x="420" y="585" />
            </Array>
          </mxGeometry>
        </mxCell>
        <mxCell id="MuIGgH-98gRfrbw5etAs-43" value="system(&quot;cls&quot;);" style="rounded=0;whiteSpace=wrap;html=1;" vertex="1" parent="1">
          <mxGeometry x="540" y="1230" width="120" height="40" as="geometry" />
        </mxCell>
        <mxCell id="MuIGgH-98gRfrbw5etAs-51" value="" style="edgeStyle=orthogonalEdgeStyle;rounded=0;orthogonalLoop=1;jettySize=auto;html=1;" edge="1" parent="1" source="MuIGgH-98gRfrbw5etAs-48" target="MuIGgH-98gRfrbw5etAs-50">
          <mxGeometry relative="1" as="geometry" />
        </mxCell>
        <mxCell id="MuIGgH-98gRfrbw5etAs-48" value="&lt;div&gt;cout &amp;lt;&amp;lt; &quot;Введите минимальный год постройки: &quot; &amp;lt;&amp;lt; endl;&lt;/div&gt;" style="shape=parallelogram;perimeter=parallelogramPerimeter;whiteSpace=wrap;html=1;fixedSize=1;" vertex="1" parent="1">
          <mxGeometry x="1110" y="640" width="240" height="60" as="geometry" />
        </mxCell>
        <mxCell id="MuIGgH-98gRfrbw5etAs-53" value="" style="edgeStyle=orthogonalEdgeStyle;rounded=0;orthogonalLoop=1;jettySize=auto;html=1;" edge="1" parent="1" source="MuIGgH-98gRfrbw5etAs-50" target="MuIGgH-98gRfrbw5etAs-52">
          <mxGeometry relative="1" as="geometry" />
        </mxCell>
        <mxCell id="MuIGgH-98gRfrbw5etAs-50" value="&lt;div&gt;cin &amp;gt;&amp;gt; min;&lt;/div&gt;" style="shape=parallelogram;perimeter=parallelogramPerimeter;whiteSpace=wrap;html=1;fixedSize=1;" vertex="1" parent="1">
          <mxGeometry x="1170" y="740" width="120" height="40" as="geometry" />
        </mxCell>
        <mxCell id="MuIGgH-98gRfrbw5etAs-55" value="" style="edgeStyle=orthogonalEdgeStyle;rounded=0;orthogonalLoop=1;jettySize=auto;html=1;" edge="1" parent="1" source="MuIGgH-98gRfrbw5etAs-52" target="MuIGgH-98gRfrbw5etAs-54">
          <mxGeometry relative="1" as="geometry" />
        </mxCell>
        <mxCell id="MuIGgH-98gRfrbw5etAs-71" style="edgeStyle=orthogonalEdgeStyle;rounded=0;orthogonalLoop=1;jettySize=auto;html=1;entryX=0.5;entryY=0;entryDx=0;entryDy=0;" edge="1" parent="1" source="MuIGgH-98gRfrbw5etAs-52" target="MuIGgH-98gRfrbw5etAs-70">
          <mxGeometry relative="1" as="geometry" />
        </mxCell>
        <mxCell id="MuIGgH-98gRfrbw5etAs-52" value="for (int i = 0; i &amp;lt; fn; i++) {" style="shape=hexagon;perimeter=hexagonPerimeter2;whiteSpace=wrap;html=1;fixedSize=1;" vertex="1" parent="1">
          <mxGeometry x="1137.5" y="820" width="185" height="50" as="geometry" />
        </mxCell>
        <mxCell id="MuIGgH-98gRfrbw5etAs-58" style="edgeStyle=orthogonalEdgeStyle;rounded=0;orthogonalLoop=1;jettySize=auto;html=1;exitX=0;exitY=0.5;exitDx=0;exitDy=0;" edge="1" parent="1" source="MuIGgH-98gRfrbw5etAs-54" target="MuIGgH-98gRfrbw5etAs-56">
          <mxGeometry relative="1" as="geometry" />
        </mxCell>
        <mxCell id="MuIGgH-98gRfrbw5etAs-62" style="edgeStyle=orthogonalEdgeStyle;rounded=0;orthogonalLoop=1;jettySize=auto;html=1;exitX=1;exitY=0.5;exitDx=0;exitDy=0;" edge="1" parent="1" source="MuIGgH-98gRfrbw5etAs-54">
          <mxGeometry relative="1" as="geometry">
            <mxPoint x="1260" y="1250" as="targetPoint" />
            <Array as="points">
              <mxPoint x="1360" y="940" />
              <mxPoint x="1360" y="1250" />
            </Array>
          </mxGeometry>
        </mxCell>
        <mxCell id="MuIGgH-98gRfrbw5etAs-54" value="&lt;div&gt;if (s[i].date_build &amp;lt; min) {&lt;/div&gt;" style="rhombus;whiteSpace=wrap;html=1;" vertex="1" parent="1">
          <mxGeometry x="1120" y="900" width="220" height="80" as="geometry" />
        </mxCell>
        <mxCell id="MuIGgH-98gRfrbw5etAs-60" value="" style="edgeStyle=orthogonalEdgeStyle;rounded=0;orthogonalLoop=1;jettySize=auto;html=1;" edge="1" parent="1" source="MuIGgH-98gRfrbw5etAs-56" target="MuIGgH-98gRfrbw5etAs-59">
          <mxGeometry relative="1" as="geometry" />
        </mxCell>
        <mxCell id="MuIGgH-98gRfrbw5etAs-63" style="edgeStyle=orthogonalEdgeStyle;rounded=0;orthogonalLoop=1;jettySize=auto;html=1;" edge="1" parent="1" source="MuIGgH-98gRfrbw5etAs-56" target="MuIGgH-98gRfrbw5etAs-64">
          <mxGeometry relative="1" as="geometry">
            <mxPoint x="1150" y="1170" as="targetPoint" />
            <Array as="points">
              <mxPoint x="1150" y="1020" />
            </Array>
          </mxGeometry>
        </mxCell>
        <mxCell id="MuIGgH-98gRfrbw5etAs-56" value="for (int j = i; j &amp;lt; n - 1; j++) {" style="shape=hexagon;perimeter=hexagonPerimeter2;whiteSpace=wrap;html=1;fixedSize=1;" vertex="1" parent="1">
          <mxGeometry x="930" y="1000" width="200" height="40" as="geometry" />
        </mxCell>
        <mxCell id="MuIGgH-98gRfrbw5etAs-61" style="edgeStyle=orthogonalEdgeStyle;rounded=0;orthogonalLoop=1;jettySize=auto;html=1;entryX=0;entryY=0.5;entryDx=0;entryDy=0;" edge="1" parent="1" source="MuIGgH-98gRfrbw5etAs-59" target="MuIGgH-98gRfrbw5etAs-56">
          <mxGeometry relative="1" as="geometry">
            <Array as="points">
              <mxPoint x="1030" y="1130" />
              <mxPoint x="910" y="1130" />
              <mxPoint x="910" y="1020" />
            </Array>
          </mxGeometry>
        </mxCell>
        <mxCell id="MuIGgH-98gRfrbw5etAs-59" value="&lt;div&gt;s[j] = s[j + 1];&lt;/div&gt;" style="rounded=0;whiteSpace=wrap;html=1;" vertex="1" parent="1">
          <mxGeometry x="970" y="1075" width="120" height="35" as="geometry" />
        </mxCell>
        <mxCell id="MuIGgH-98gRfrbw5etAs-65" style="edgeStyle=orthogonalEdgeStyle;rounded=0;orthogonalLoop=1;jettySize=auto;html=1;exitX=0.5;exitY=1;exitDx=0;exitDy=0;" edge="1" parent="1" source="MuIGgH-98gRfrbw5etAs-64">
          <mxGeometry relative="1" as="geometry">
            <mxPoint x="1260" y="1250" as="targetPoint" />
            <Array as="points">
              <mxPoint x="1150" y="1250" />
            </Array>
          </mxGeometry>
        </mxCell>
        <mxCell id="MuIGgH-98gRfrbw5etAs-64" value="&lt;div&gt;fn--;&lt;/div&gt;" style="rounded=0;whiteSpace=wrap;html=1;" vertex="1" parent="1">
          <mxGeometry x="1110" y="1170" width="80" height="30" as="geometry" />
        </mxCell>
        <mxCell id="MuIGgH-98gRfrbw5etAs-66" value="" style="endArrow=none;html=1;rounded=0;" edge="1" parent="1">
          <mxGeometry width="50" height="50" relative="1" as="geometry">
            <mxPoint x="1260" y="1280" as="sourcePoint" />
            <mxPoint x="1260" y="1250" as="targetPoint" />
          </mxGeometry>
        </mxCell>
        <mxCell id="MuIGgH-98gRfrbw5etAs-67" value="" style="endArrow=none;html=1;rounded=0;" edge="1" parent="1">
          <mxGeometry width="50" height="50" relative="1" as="geometry">
            <mxPoint x="860" y="1280" as="sourcePoint" />
            <mxPoint x="1260" y="1280" as="targetPoint" />
          </mxGeometry>
        </mxCell>
        <mxCell id="MuIGgH-98gRfrbw5etAs-68" value="" style="endArrow=none;html=1;rounded=0;" edge="1" parent="1">
          <mxGeometry width="50" height="50" relative="1" as="geometry">
            <mxPoint x="860" y="1280" as="sourcePoint" />
            <mxPoint x="859" y="844" as="targetPoint" />
          </mxGeometry>
        </mxCell>
        <mxCell id="MuIGgH-98gRfrbw5etAs-69" value="" style="endArrow=classic;html=1;rounded=0;entryX=0;entryY=0.5;entryDx=0;entryDy=0;" edge="1" parent="1" target="MuIGgH-98gRfrbw5etAs-52">
          <mxGeometry width="50" height="50" relative="1" as="geometry">
            <mxPoint x="860" y="845" as="sourcePoint" />
            <mxPoint x="910" y="800" as="targetPoint" />
          </mxGeometry>
        </mxCell>
        <mxCell id="MuIGgH-98gRfrbw5etAs-73" value="" style="edgeStyle=orthogonalEdgeStyle;rounded=0;orthogonalLoop=1;jettySize=auto;html=1;" edge="1" parent="1" source="MuIGgH-98gRfrbw5etAs-70" target="MuIGgH-98gRfrbw5etAs-72">
          <mxGeometry relative="1" as="geometry" />
        </mxCell>
        <mxCell id="MuIGgH-98gRfrbw5etAs-77" style="edgeStyle=orthogonalEdgeStyle;rounded=0;orthogonalLoop=1;jettySize=auto;html=1;" edge="1" parent="1" source="MuIGgH-98gRfrbw5etAs-70" target="MuIGgH-98gRfrbw5etAs-75">
          <mxGeometry relative="1" as="geometry" />
        </mxCell>
        <mxCell id="MuIGgH-98gRfrbw5etAs-70" value="for (int i = 0; i &amp;lt; fn; i++) {" style="shape=hexagon;perimeter=hexagonPerimeter2;whiteSpace=wrap;html=1;fixedSize=1;" vertex="1" parent="1">
          <mxGeometry x="1620" y="900" width="160" height="40" as="geometry" />
        </mxCell>
        <mxCell id="MuIGgH-98gRfrbw5etAs-74" style="edgeStyle=orthogonalEdgeStyle;rounded=0;orthogonalLoop=1;jettySize=auto;html=1;entryX=0;entryY=0.5;entryDx=0;entryDy=0;" edge="1" parent="1" source="MuIGgH-98gRfrbw5etAs-72" target="MuIGgH-98gRfrbw5etAs-70">
          <mxGeometry relative="1" as="geometry">
            <Array as="points">
              <mxPoint x="1700" y="1110" />
              <mxPoint x="1530" y="1110" />
              <mxPoint x="1530" y="920" />
            </Array>
          </mxGeometry>
        </mxCell>
        <mxCell id="MuIGgH-98gRfrbw5etAs-72" value="cout &amp;lt;&amp;lt; s[i].name &amp;lt;&amp;lt; &quot; &quot; &amp;lt;&amp;lt; s[i].date_build &amp;lt;&amp;lt; &quot; &quot; &amp;lt;&amp;lt; s[i].cnt_pl &amp;lt;&amp;lt; &quot; &quot; &amp;lt;&amp;lt; s[i].sport &amp;lt;&amp;lt; endl;" style="shape=parallelogram;perimeter=parallelogramPerimeter;whiteSpace=wrap;html=1;fixedSize=1;" vertex="1" parent="1">
          <mxGeometry x="1550" y="1010" width="300" height="60" as="geometry" />
        </mxCell>
        <mxCell id="MuIGgH-98gRfrbw5etAs-80" value="" style="edgeStyle=orthogonalEdgeStyle;rounded=0;orthogonalLoop=1;jettySize=auto;html=1;" edge="1" parent="1" source="MuIGgH-98gRfrbw5etAs-75" target="MuIGgH-98gRfrbw5etAs-79">
          <mxGeometry relative="1" as="geometry" />
        </mxCell>
        <mxCell id="MuIGgH-98gRfrbw5etAs-75" value="&lt;div&gt;int t;&lt;/div&gt;" style="rounded=0;whiteSpace=wrap;html=1;" vertex="1" parent="1">
          <mxGeometry x="1950" y="1050" width="80" height="40" as="geometry" />
        </mxCell>
        <mxCell id="MuIGgH-98gRfrbw5etAs-82" value="" style="edgeStyle=orthogonalEdgeStyle;rounded=0;orthogonalLoop=1;jettySize=auto;html=1;" edge="1" parent="1" source="MuIGgH-98gRfrbw5etAs-79" target="MuIGgH-98gRfrbw5etAs-81">
          <mxGeometry relative="1" as="geometry" />
        </mxCell>
        <mxCell id="MuIGgH-98gRfrbw5etAs-79" value="&lt;div&gt;cout &amp;lt;&amp;lt; &quot;Осталось стадионов: &quot; &amp;lt;&amp;lt; fn&amp;lt;&amp;lt; endl;&lt;/div&gt;" style="shape=parallelogram;perimeter=parallelogramPerimeter;whiteSpace=wrap;html=1;fixedSize=1;" vertex="1" parent="1">
          <mxGeometry x="1835" y="1129" width="310" height="40" as="geometry" />
        </mxCell>
        <mxCell id="MuIGgH-98gRfrbw5etAs-84" value="" style="edgeStyle=orthogonalEdgeStyle;rounded=0;orthogonalLoop=1;jettySize=auto;html=1;" edge="1" parent="1" source="MuIGgH-98gRfrbw5etAs-81" target="MuIGgH-98gRfrbw5etAs-83">
          <mxGeometry relative="1" as="geometry" />
        </mxCell>
        <mxCell id="MuIGgH-98gRfrbw5etAs-81" value="cout &lt;&lt; &quot;Введите номер нового стадиона: &quot; &lt;&lt; endl;" style="shape=parallelogram;perimeter=parallelogramPerimeter;whiteSpace=wrap;html=1;fixedSize=1;" vertex="1" parent="1">
          <mxGeometry x="1827.5" y="1200" width="325" height="40" as="geometry" />
        </mxCell>
        <mxCell id="MuIGgH-98gRfrbw5etAs-86" value="" style="edgeStyle=orthogonalEdgeStyle;rounded=0;orthogonalLoop=1;jettySize=auto;html=1;" edge="1" parent="1" source="MuIGgH-98gRfrbw5etAs-83" target="MuIGgH-98gRfrbw5etAs-85">
          <mxGeometry relative="1" as="geometry" />
        </mxCell>
        <mxCell id="MuIGgH-98gRfrbw5etAs-83" value="cin &gt;&gt; t;" style="shape=parallelogram;perimeter=parallelogramPerimeter;whiteSpace=wrap;html=1;fixedSize=1;" vertex="1" parent="1">
          <mxGeometry x="1930" y="1260" width="120" height="40" as="geometry" />
        </mxCell>
        <mxCell id="MuIGgH-98gRfrbw5etAs-88" style="edgeStyle=orthogonalEdgeStyle;rounded=0;orthogonalLoop=1;jettySize=auto;html=1;entryX=0.5;entryY=0;entryDx=0;entryDy=0;exitX=0;exitY=0.5;exitDx=0;exitDy=0;" edge="1" parent="1" source="MuIGgH-98gRfrbw5etAs-85" target="MuIGgH-98gRfrbw5etAs-87">
          <mxGeometry relative="1" as="geometry" />
        </mxCell>
        <mxCell id="MuIGgH-98gRfrbw5etAs-91" style="edgeStyle=orthogonalEdgeStyle;rounded=0;orthogonalLoop=1;jettySize=auto;html=1;exitX=1;exitY=0.5;exitDx=0;exitDy=0;" edge="1" parent="1" source="MuIGgH-98gRfrbw5etAs-85">
          <mxGeometry relative="1" as="geometry">
            <mxPoint x="1990" y="1550" as="targetPoint" />
            <Array as="points">
              <mxPoint x="2075" y="1370" />
              <mxPoint x="2075" y="1550" />
            </Array>
          </mxGeometry>
        </mxCell>
        <mxCell id="MuIGgH-98gRfrbw5etAs-85" value="if (fn &amp;gt; t) {" style="rhombus;whiteSpace=wrap;html=1;" vertex="1" parent="1">
          <mxGeometry x="1925" y="1330" width="130" height="80" as="geometry" />
        </mxCell>
        <mxCell id="MuIGgH-98gRfrbw5etAs-90" value="" style="edgeStyle=orthogonalEdgeStyle;rounded=0;orthogonalLoop=1;jettySize=auto;html=1;" edge="1" parent="1" source="MuIGgH-98gRfrbw5etAs-87" target="MuIGgH-98gRfrbw5etAs-89">
          <mxGeometry relative="1" as="geometry" />
        </mxCell>
        <mxCell id="MuIGgH-98gRfrbw5etAs-87" value="&lt;div&gt;for (int i = fn; i &amp;gt; t; i--) {&lt;/div&gt;" style="shape=hexagon;perimeter=hexagonPerimeter2;whiteSpace=wrap;html=1;fixedSize=1;" vertex="1" parent="1">
          <mxGeometry x="1750" y="1410" width="180" height="40" as="geometry" />
        </mxCell>
        <mxCell id="MuIGgH-98gRfrbw5etAs-92" style="edgeStyle=orthogonalEdgeStyle;rounded=0;orthogonalLoop=1;jettySize=auto;html=1;exitX=0.5;exitY=1;exitDx=0;exitDy=0;" edge="1" parent="1" source="MuIGgH-98gRfrbw5etAs-89">
          <mxGeometry relative="1" as="geometry">
            <mxPoint x="1990" y="1550" as="targetPoint" />
            <mxPoint x="1840" y="1520" as="sourcePoint" />
            <Array as="points">
              <mxPoint x="1840" y="1550" />
            </Array>
          </mxGeometry>
        </mxCell>
        <mxCell id="MuIGgH-98gRfrbw5etAs-89" value="&lt;div&gt;s[i] = s[i - 1];&lt;/div&gt;" style="rounded=0;whiteSpace=wrap;html=1;" vertex="1" parent="1">
          <mxGeometry x="1785" y="1480" width="110" height="30" as="geometry" />
        </mxCell>
        <mxCell id="MuIGgH-98gRfrbw5etAs-98" value="" style="edgeStyle=orthogonalEdgeStyle;rounded=0;orthogonalLoop=1;jettySize=auto;html=1;" edge="1" parent="1" source="MuIGgH-98gRfrbw5etAs-93" target="MuIGgH-98gRfrbw5etAs-97">
          <mxGeometry relative="1" as="geometry" />
        </mxCell>
        <mxCell id="MuIGgH-98gRfrbw5etAs-93" value="&lt;div&gt;fn +=1;&lt;/div&gt;" style="rounded=0;whiteSpace=wrap;html=1;" vertex="1" parent="1">
          <mxGeometry x="1930" y="1590" width="120" height="60" as="geometry" />
        </mxCell>
        <mxCell id="MuIGgH-98gRfrbw5etAs-96" value="" style="endArrow=classic;html=1;rounded=0;entryX=0.5;entryY=0;entryDx=0;entryDy=0;" edge="1" parent="1" target="MuIGgH-98gRfrbw5etAs-93">
          <mxGeometry width="50" height="50" relative="1" as="geometry">
            <mxPoint x="1990" y="1550" as="sourcePoint" />
            <mxPoint x="2040" y="1500" as="targetPoint" />
          </mxGeometry>
        </mxCell>
        <mxCell id="MuIGgH-98gRfrbw5etAs-100" value="" style="edgeStyle=orthogonalEdgeStyle;rounded=0;orthogonalLoop=1;jettySize=auto;html=1;" edge="1" parent="1" source="MuIGgH-98gRfrbw5etAs-97" target="MuIGgH-98gRfrbw5etAs-99">
          <mxGeometry relative="1" as="geometry" />
        </mxCell>
        <mxCell id="MuIGgH-98gRfrbw5etAs-97" value="&lt;div&gt;string s1, d1;&lt;/div&gt;" style="rounded=0;whiteSpace=wrap;html=1;" vertex="1" parent="1">
          <mxGeometry x="1930" y="1670" width="120" height="46" as="geometry" />
        </mxCell>
        <mxCell id="MuIGgH-98gRfrbw5etAs-102" value="" style="edgeStyle=orthogonalEdgeStyle;rounded=0;orthogonalLoop=1;jettySize=auto;html=1;" edge="1" parent="1" source="MuIGgH-98gRfrbw5etAs-99" target="MuIGgH-98gRfrbw5etAs-101">
          <mxGeometry relative="1" as="geometry" />
        </mxCell>
        <mxCell id="MuIGgH-98gRfrbw5etAs-99" value="&lt;div&gt;int n1, p1;&lt;/div&gt;" style="rounded=0;whiteSpace=wrap;html=1;" vertex="1" parent="1">
          <mxGeometry x="1930" y="1740" width="120" height="40" as="geometry" />
        </mxCell>
        <mxCell id="MuIGgH-98gRfrbw5etAs-104" value="" style="edgeStyle=orthogonalEdgeStyle;rounded=0;orthogonalLoop=1;jettySize=auto;html=1;" edge="1" parent="1" source="MuIGgH-98gRfrbw5etAs-101" target="MuIGgH-98gRfrbw5etAs-103">
          <mxGeometry relative="1" as="geometry" />
        </mxCell>
        <mxCell id="MuIGgH-98gRfrbw5etAs-101" value="&lt;div&gt;cout &amp;lt;&amp;lt; &quot;Введите параметры нового стадиона: &quot; &amp;lt;&amp;lt; endl;&lt;/div&gt;" style="shape=parallelogram;perimeter=parallelogramPerimeter;whiteSpace=wrap;html=1;fixedSize=1;" vertex="1" parent="1">
          <mxGeometry x="1815" y="1820" width="350" height="60" as="geometry" />
        </mxCell>
        <mxCell id="MuIGgH-98gRfrbw5etAs-106" value="" style="edgeStyle=orthogonalEdgeStyle;rounded=0;orthogonalLoop=1;jettySize=auto;html=1;" edge="1" parent="1" source="MuIGgH-98gRfrbw5etAs-103" target="MuIGgH-98gRfrbw5etAs-105">
          <mxGeometry relative="1" as="geometry" />
        </mxCell>
        <mxCell id="MuIGgH-98gRfrbw5etAs-103" value="&lt;div&gt;cout &amp;lt;&amp;lt; &quot;Введите название стадиона: &quot; &amp;lt;&amp;lt; endl;&lt;/div&gt;" style="shape=parallelogram;perimeter=parallelogramPerimeter;whiteSpace=wrap;html=1;fixedSize=1;" vertex="1" parent="1">
          <mxGeometry x="1832.5" y="1910" width="315" height="50" as="geometry" />
        </mxCell>
        <mxCell id="MuIGgH-98gRfrbw5etAs-108" value="" style="edgeStyle=orthogonalEdgeStyle;rounded=0;orthogonalLoop=1;jettySize=auto;html=1;" edge="1" parent="1" source="MuIGgH-98gRfrbw5etAs-105" target="MuIGgH-98gRfrbw5etAs-107">
          <mxGeometry relative="1" as="geometry" />
        </mxCell>
        <mxCell id="MuIGgH-98gRfrbw5etAs-105" value="&lt;div&gt;cin &amp;gt;&amp;gt; s1;&lt;/div&gt;" style="shape=parallelogram;perimeter=parallelogramPerimeter;whiteSpace=wrap;html=1;fixedSize=1;" vertex="1" parent="1">
          <mxGeometry x="1930" y="1990" width="120" height="40" as="geometry" />
        </mxCell>
        <mxCell id="MuIGgH-98gRfrbw5etAs-110" value="" style="edgeStyle=orthogonalEdgeStyle;rounded=0;orthogonalLoop=1;jettySize=auto;html=1;" edge="1" parent="1" source="MuIGgH-98gRfrbw5etAs-107" target="MuIGgH-98gRfrbw5etAs-109">
          <mxGeometry relative="1" as="geometry" />
        </mxCell>
        <mxCell id="MuIGgH-98gRfrbw5etAs-107" value="&lt;div&gt;cout &amp;lt;&amp;lt; &quot;Введите дату постройки: &quot; &amp;lt;&amp;lt; endl;&lt;/div&gt;" style="shape=parallelogram;perimeter=parallelogramPerimeter;whiteSpace=wrap;html=1;fixedSize=1;" vertex="1" parent="1">
          <mxGeometry x="1832.5" y="2060" width="315" height="50" as="geometry" />
        </mxCell>
        <mxCell id="MuIGgH-98gRfrbw5etAs-113" value="" style="edgeStyle=orthogonalEdgeStyle;rounded=0;orthogonalLoop=1;jettySize=auto;html=1;" edge="1" parent="1" source="MuIGgH-98gRfrbw5etAs-109" target="MuIGgH-98gRfrbw5etAs-112">
          <mxGeometry relative="1" as="geometry" />
        </mxCell>
        <mxCell id="MuIGgH-98gRfrbw5etAs-109" value="&lt;div&gt;cin &amp;gt;&amp;gt; n1;&lt;/div&gt;" style="shape=parallelogram;perimeter=parallelogramPerimeter;whiteSpace=wrap;html=1;fixedSize=1;" vertex="1" parent="1">
          <mxGeometry x="1930" y="2140" width="120" height="40" as="geometry" />
        </mxCell>
        <mxCell id="MuIGgH-98gRfrbw5etAs-122" value="" style="edgeStyle=orthogonalEdgeStyle;rounded=0;orthogonalLoop=1;jettySize=auto;html=1;" edge="1" parent="1" source="MuIGgH-98gRfrbw5etAs-112" target="MuIGgH-98gRfrbw5etAs-116">
          <mxGeometry relative="1" as="geometry" />
        </mxCell>
        <mxCell id="MuIGgH-98gRfrbw5etAs-112" value="&lt;div&gt;cout &amp;lt;&amp;lt; &quot;Введите дату постройки: &quot; &amp;lt;&amp;lt; endl;&lt;/div&gt;" style="shape=parallelogram;perimeter=parallelogramPerimeter;whiteSpace=wrap;html=1;fixedSize=1;" vertex="1" parent="1">
          <mxGeometry x="1832.5" y="2210" width="315" height="50" as="geometry" />
        </mxCell>
        <mxCell id="MuIGgH-98gRfrbw5etAs-115" value="" style="edgeStyle=orthogonalEdgeStyle;rounded=0;orthogonalLoop=1;jettySize=auto;html=1;" edge="1" parent="1" source="MuIGgH-98gRfrbw5etAs-116" target="MuIGgH-98gRfrbw5etAs-118">
          <mxGeometry relative="1" as="geometry" />
        </mxCell>
        <mxCell id="MuIGgH-98gRfrbw5etAs-116" value="&lt;div&gt;cin &amp;gt;&amp;gt; p1;&lt;/div&gt;" style="shape=parallelogram;perimeter=parallelogramPerimeter;whiteSpace=wrap;html=1;fixedSize=1;" vertex="1" parent="1">
          <mxGeometry x="1930" y="2300" width="120" height="40" as="geometry" />
        </mxCell>
        <mxCell id="MuIGgH-98gRfrbw5etAs-117" value="" style="edgeStyle=orthogonalEdgeStyle;rounded=0;orthogonalLoop=1;jettySize=auto;html=1;" edge="1" parent="1" source="MuIGgH-98gRfrbw5etAs-118" target="MuIGgH-98gRfrbw5etAs-120">
          <mxGeometry relative="1" as="geometry" />
        </mxCell>
        <mxCell id="MuIGgH-98gRfrbw5etAs-118" value="&lt;div&gt;cout &amp;lt;&amp;lt; &quot;Для какого спорта предназначен: &quot; &amp;lt;&amp;lt; endl;&lt;/div&gt;" style="shape=parallelogram;perimeter=parallelogramPerimeter;whiteSpace=wrap;html=1;fixedSize=1;" vertex="1" parent="1">
          <mxGeometry x="1826.25" y="2370" width="327.5" height="50" as="geometry" />
        </mxCell>
        <mxCell id="MuIGgH-98gRfrbw5etAs-124" value="" style="edgeStyle=orthogonalEdgeStyle;rounded=0;orthogonalLoop=1;jettySize=auto;html=1;" edge="1" parent="1" source="MuIGgH-98gRfrbw5etAs-120" target="MuIGgH-98gRfrbw5etAs-123">
          <mxGeometry relative="1" as="geometry" />
        </mxCell>
        <mxCell id="MuIGgH-98gRfrbw5etAs-120" value="&lt;div&gt;cin &amp;gt;&amp;gt; d1;&lt;/div&gt;" style="shape=parallelogram;perimeter=parallelogramPerimeter;whiteSpace=wrap;html=1;fixedSize=1;" vertex="1" parent="1">
          <mxGeometry x="1930" y="2450" width="120" height="40" as="geometry" />
        </mxCell>
        <mxCell id="MuIGgH-98gRfrbw5etAs-127" value="" style="edgeStyle=orthogonalEdgeStyle;rounded=0;orthogonalLoop=1;jettySize=auto;html=1;" edge="1" parent="1" source="MuIGgH-98gRfrbw5etAs-123" target="MuIGgH-98gRfrbw5etAs-126">
          <mxGeometry relative="1" as="geometry" />
        </mxCell>
        <mxCell id="MuIGgH-98gRfrbw5etAs-123" value="&lt;div&gt;s[t-1].enter_info(s1, n1, p1, d1);&lt;/div&gt;" style="rounded=0;whiteSpace=wrap;html=1;" vertex="1" parent="1">
          <mxGeometry x="1895" y="2520" width="190" height="40" as="geometry" />
        </mxCell>
        <mxCell id="MuIGgH-98gRfrbw5etAs-142" value="" style="edgeStyle=orthogonalEdgeStyle;rounded=0;orthogonalLoop=1;jettySize=auto;html=1;" edge="1" parent="1" source="MuIGgH-98gRfrbw5etAs-126" target="MuIGgH-98gRfrbw5etAs-137">
          <mxGeometry relative="1" as="geometry" />
        </mxCell>
        <mxCell id="MuIGgH-98gRfrbw5etAs-126" value="fn += 1;" style="rounded=0;whiteSpace=wrap;html=1;" vertex="1" parent="1">
          <mxGeometry x="1940" y="2590" width="100" height="30" as="geometry" />
        </mxCell>
        <mxCell id="MuIGgH-98gRfrbw5etAs-135" style="edgeStyle=orthogonalEdgeStyle;rounded=0;orthogonalLoop=1;jettySize=auto;html=1;entryX=0.5;entryY=0;entryDx=0;entryDy=0;exitX=0;exitY=0.5;exitDx=0;exitDy=0;" edge="1" parent="1" source="MuIGgH-98gRfrbw5etAs-137" target="MuIGgH-98gRfrbw5etAs-139">
          <mxGeometry relative="1" as="geometry" />
        </mxCell>
        <mxCell id="MuIGgH-98gRfrbw5etAs-136" style="edgeStyle=orthogonalEdgeStyle;rounded=0;orthogonalLoop=1;jettySize=auto;html=1;exitX=1;exitY=0.5;exitDx=0;exitDy=0;" edge="1" parent="1" source="MuIGgH-98gRfrbw5etAs-137">
          <mxGeometry relative="1" as="geometry">
            <mxPoint x="1990" y="2880" as="targetPoint" />
            <Array as="points">
              <mxPoint x="2075" y="2700" />
              <mxPoint x="2075" y="2880" />
            </Array>
          </mxGeometry>
        </mxCell>
        <mxCell id="MuIGgH-98gRfrbw5etAs-137" value="if (fn &amp;gt; t) {" style="rhombus;whiteSpace=wrap;html=1;" vertex="1" parent="1">
          <mxGeometry x="1925" y="2660" width="130" height="80" as="geometry" />
        </mxCell>
        <mxCell id="MuIGgH-98gRfrbw5etAs-138" value="" style="edgeStyle=orthogonalEdgeStyle;rounded=0;orthogonalLoop=1;jettySize=auto;html=1;" edge="1" parent="1" source="MuIGgH-98gRfrbw5etAs-139" target="MuIGgH-98gRfrbw5etAs-141">
          <mxGeometry relative="1" as="geometry" />
        </mxCell>
        <mxCell id="MuIGgH-98gRfrbw5etAs-139" value="&lt;div&gt;for (int i = fn; i &amp;gt; t; i--) {&lt;/div&gt;" style="shape=hexagon;perimeter=hexagonPerimeter2;whiteSpace=wrap;html=1;fixedSize=1;" vertex="1" parent="1">
          <mxGeometry x="1750" y="2740" width="180" height="40" as="geometry" />
        </mxCell>
        <mxCell id="MuIGgH-98gRfrbw5etAs-140" style="edgeStyle=orthogonalEdgeStyle;rounded=0;orthogonalLoop=1;jettySize=auto;html=1;exitX=0.5;exitY=1;exitDx=0;exitDy=0;" edge="1" parent="1" source="MuIGgH-98gRfrbw5etAs-141">
          <mxGeometry relative="1" as="geometry">
            <mxPoint x="1990" y="2880" as="targetPoint" />
            <mxPoint x="1840" y="2850" as="sourcePoint" />
            <Array as="points">
              <mxPoint x="1840" y="2880" />
            </Array>
          </mxGeometry>
        </mxCell>
        <mxCell id="MuIGgH-98gRfrbw5etAs-141" value="&lt;div&gt;s[i] = s[i - 1];&lt;/div&gt;" style="rounded=0;whiteSpace=wrap;html=1;" vertex="1" parent="1">
          <mxGeometry x="1785" y="2810" width="110" height="30" as="geometry" />
        </mxCell>
        <mxCell id="MuIGgH-98gRfrbw5etAs-143" value="" style="edgeStyle=orthogonalEdgeStyle;rounded=0;orthogonalLoop=1;jettySize=auto;html=1;" edge="1" parent="1" source="MuIGgH-98gRfrbw5etAs-144" target="MuIGgH-98gRfrbw5etAs-146">
          <mxGeometry relative="1" as="geometry" />
        </mxCell>
        <mxCell id="MuIGgH-98gRfrbw5etAs-144" value="&lt;div&gt;cout &amp;lt;&amp;lt; &quot;Введите параметры нового стадиона: &quot; &amp;lt;&amp;lt; endl;&lt;/div&gt;" style="shape=parallelogram;perimeter=parallelogramPerimeter;whiteSpace=wrap;html=1;fixedSize=1;" vertex="1" parent="1">
          <mxGeometry x="1815" y="2922" width="350" height="60" as="geometry" />
        </mxCell>
        <mxCell id="MuIGgH-98gRfrbw5etAs-145" value="" style="edgeStyle=orthogonalEdgeStyle;rounded=0;orthogonalLoop=1;jettySize=auto;html=1;" edge="1" parent="1" source="MuIGgH-98gRfrbw5etAs-146" target="MuIGgH-98gRfrbw5etAs-148">
          <mxGeometry relative="1" as="geometry" />
        </mxCell>
        <mxCell id="MuIGgH-98gRfrbw5etAs-146" value="&lt;div&gt;cout &amp;lt;&amp;lt; &quot;Введите название стадиона: &quot; &amp;lt;&amp;lt; endl;&lt;/div&gt;" style="shape=parallelogram;perimeter=parallelogramPerimeter;whiteSpace=wrap;html=1;fixedSize=1;" vertex="1" parent="1">
          <mxGeometry x="1832.5" y="3012" width="315" height="50" as="geometry" />
        </mxCell>
        <mxCell id="MuIGgH-98gRfrbw5etAs-147" value="" style="edgeStyle=orthogonalEdgeStyle;rounded=0;orthogonalLoop=1;jettySize=auto;html=1;" edge="1" parent="1" source="MuIGgH-98gRfrbw5etAs-148" target="MuIGgH-98gRfrbw5etAs-150">
          <mxGeometry relative="1" as="geometry" />
        </mxCell>
        <mxCell id="MuIGgH-98gRfrbw5etAs-148" value="&lt;div&gt;cin &amp;gt;&amp;gt; s1;&lt;/div&gt;" style="shape=parallelogram;perimeter=parallelogramPerimeter;whiteSpace=wrap;html=1;fixedSize=1;" vertex="1" parent="1">
          <mxGeometry x="1930" y="3092" width="120" height="40" as="geometry" />
        </mxCell>
        <mxCell id="MuIGgH-98gRfrbw5etAs-149" value="" style="edgeStyle=orthogonalEdgeStyle;rounded=0;orthogonalLoop=1;jettySize=auto;html=1;" edge="1" parent="1" source="MuIGgH-98gRfrbw5etAs-150" target="MuIGgH-98gRfrbw5etAs-152">
          <mxGeometry relative="1" as="geometry" />
        </mxCell>
        <mxCell id="MuIGgH-98gRfrbw5etAs-150" value="&lt;div&gt;cout &amp;lt;&amp;lt; &quot;Введите дату постройки: &quot; &amp;lt;&amp;lt; endl;&lt;/div&gt;" style="shape=parallelogram;perimeter=parallelogramPerimeter;whiteSpace=wrap;html=1;fixedSize=1;" vertex="1" parent="1">
          <mxGeometry x="1832.5" y="3162" width="315" height="50" as="geometry" />
        </mxCell>
        <mxCell id="MuIGgH-98gRfrbw5etAs-151" value="" style="edgeStyle=orthogonalEdgeStyle;rounded=0;orthogonalLoop=1;jettySize=auto;html=1;" edge="1" parent="1" source="MuIGgH-98gRfrbw5etAs-152" target="MuIGgH-98gRfrbw5etAs-154">
          <mxGeometry relative="1" as="geometry" />
        </mxCell>
        <mxCell id="MuIGgH-98gRfrbw5etAs-152" value="&lt;div&gt;cin &amp;gt;&amp;gt; n1;&lt;/div&gt;" style="shape=parallelogram;perimeter=parallelogramPerimeter;whiteSpace=wrap;html=1;fixedSize=1;" vertex="1" parent="1">
          <mxGeometry x="1930" y="3242" width="120" height="40" as="geometry" />
        </mxCell>
        <mxCell id="MuIGgH-98gRfrbw5etAs-153" value="" style="edgeStyle=orthogonalEdgeStyle;rounded=0;orthogonalLoop=1;jettySize=auto;html=1;" edge="1" parent="1" source="MuIGgH-98gRfrbw5etAs-154" target="MuIGgH-98gRfrbw5etAs-156">
          <mxGeometry relative="1" as="geometry" />
        </mxCell>
        <mxCell id="MuIGgH-98gRfrbw5etAs-154" value="&lt;div&gt;cout &amp;lt;&amp;lt; &quot;Введите дату постройки: &quot; &amp;lt;&amp;lt; endl;&lt;/div&gt;" style="shape=parallelogram;perimeter=parallelogramPerimeter;whiteSpace=wrap;html=1;fixedSize=1;" vertex="1" parent="1">
          <mxGeometry x="1832.5" y="3312" width="315" height="50" as="geometry" />
        </mxCell>
        <mxCell id="MuIGgH-98gRfrbw5etAs-155" value="" style="edgeStyle=orthogonalEdgeStyle;rounded=0;orthogonalLoop=1;jettySize=auto;html=1;" edge="1" parent="1" source="MuIGgH-98gRfrbw5etAs-156" target="MuIGgH-98gRfrbw5etAs-158">
          <mxGeometry relative="1" as="geometry" />
        </mxCell>
        <mxCell id="MuIGgH-98gRfrbw5etAs-156" value="&lt;div&gt;cin &amp;gt;&amp;gt; p1;&lt;/div&gt;" style="shape=parallelogram;perimeter=parallelogramPerimeter;whiteSpace=wrap;html=1;fixedSize=1;" vertex="1" parent="1">
          <mxGeometry x="1930" y="3402" width="120" height="40" as="geometry" />
        </mxCell>
        <mxCell id="MuIGgH-98gRfrbw5etAs-157" value="" style="edgeStyle=orthogonalEdgeStyle;rounded=0;orthogonalLoop=1;jettySize=auto;html=1;" edge="1" parent="1" source="MuIGgH-98gRfrbw5etAs-158" target="MuIGgH-98gRfrbw5etAs-160">
          <mxGeometry relative="1" as="geometry" />
        </mxCell>
        <mxCell id="MuIGgH-98gRfrbw5etAs-158" value="&lt;div&gt;cout &amp;lt;&amp;lt; &quot;Для какого спорта предназначен: &quot; &amp;lt;&amp;lt; endl;&lt;/div&gt;" style="shape=parallelogram;perimeter=parallelogramPerimeter;whiteSpace=wrap;html=1;fixedSize=1;" vertex="1" parent="1">
          <mxGeometry x="1826.25" y="3472" width="327.5" height="50" as="geometry" />
        </mxCell>
        <mxCell id="MuIGgH-98gRfrbw5etAs-159" value="" style="edgeStyle=orthogonalEdgeStyle;rounded=0;orthogonalLoop=1;jettySize=auto;html=1;" edge="1" parent="1" source="MuIGgH-98gRfrbw5etAs-160" target="MuIGgH-98gRfrbw5etAs-162">
          <mxGeometry relative="1" as="geometry" />
        </mxCell>
        <mxCell id="MuIGgH-98gRfrbw5etAs-160" value="&lt;div&gt;cin &amp;gt;&amp;gt; d1;&lt;/div&gt;" style="shape=parallelogram;perimeter=parallelogramPerimeter;whiteSpace=wrap;html=1;fixedSize=1;" vertex="1" parent="1">
          <mxGeometry x="1930" y="3552" width="120" height="40" as="geometry" />
        </mxCell>
        <mxCell id="MuIGgH-98gRfrbw5etAs-161" value="" style="edgeStyle=orthogonalEdgeStyle;rounded=0;orthogonalLoop=1;jettySize=auto;html=1;" edge="1" parent="1" source="MuIGgH-98gRfrbw5etAs-162">
          <mxGeometry relative="1" as="geometry">
            <mxPoint x="1990" y="3692" as="targetPoint" />
          </mxGeometry>
        </mxCell>
        <mxCell id="MuIGgH-98gRfrbw5etAs-162" value="&lt;div&gt;s[t-1].enter_info(s1, n1, p1, d1);&lt;/div&gt;" style="rounded=0;whiteSpace=wrap;html=1;" vertex="1" parent="1">
          <mxGeometry x="1895" y="3622" width="190" height="40" as="geometry" />
        </mxCell>
        <mxCell id="MuIGgH-98gRfrbw5etAs-164" value="" style="endArrow=classic;html=1;rounded=0;entryX=0.5;entryY=0;entryDx=0;entryDy=0;" edge="1" parent="1" target="MuIGgH-98gRfrbw5etAs-144">
          <mxGeometry width="50" height="50" relative="1" as="geometry">
            <mxPoint x="1990" y="2880" as="sourcePoint" />
            <mxPoint x="2030" y="2830" as="targetPoint" />
          </mxGeometry>
        </mxCell>
        <mxCell id="MuIGgH-98gRfrbw5etAs-167" value="" style="edgeStyle=orthogonalEdgeStyle;rounded=0;orthogonalLoop=1;jettySize=auto;html=1;" edge="1" parent="1" source="MuIGgH-98gRfrbw5etAs-165" target="MuIGgH-98gRfrbw5etAs-166">
          <mxGeometry relative="1" as="geometry" />
        </mxCell>
        <mxCell id="MuIGgH-98gRfrbw5etAs-165" value="ofstream f1(&quot;F1.txt&quot;);" style="rounded=0;whiteSpace=wrap;html=1;" vertex="1" parent="1">
          <mxGeometry x="1920" y="3690" width="140" height="40" as="geometry" />
        </mxCell>
        <mxCell id="MuIGgH-98gRfrbw5etAs-169" value="" style="edgeStyle=orthogonalEdgeStyle;rounded=0;orthogonalLoop=1;jettySize=auto;html=1;" edge="1" parent="1" source="MuIGgH-98gRfrbw5etAs-166" target="MuIGgH-98gRfrbw5etAs-168">
          <mxGeometry relative="1" as="geometry" />
        </mxCell>
        <mxCell id="MuIGgH-98gRfrbw5etAs-171" style="edgeStyle=orthogonalEdgeStyle;rounded=0;orthogonalLoop=1;jettySize=auto;html=1;" edge="1" parent="1" source="MuIGgH-98gRfrbw5etAs-166">
          <mxGeometry relative="1" as="geometry">
            <mxPoint x="2180" y="3785" as="targetPoint" />
          </mxGeometry>
        </mxCell>
        <mxCell id="MuIGgH-98gRfrbw5etAs-166" value="for (int i = 0; i &amp;lt; fn; i++) {" style="shape=hexagon;perimeter=hexagonPerimeter2;whiteSpace=wrap;html=1;fixedSize=1;" vertex="1" parent="1">
          <mxGeometry x="1885" y="3760" width="210" height="50" as="geometry" />
        </mxCell>
        <mxCell id="MuIGgH-98gRfrbw5etAs-170" style="edgeStyle=orthogonalEdgeStyle;rounded=0;orthogonalLoop=1;jettySize=auto;html=1;entryX=0;entryY=0.5;entryDx=0;entryDy=0;" edge="1" parent="1" source="MuIGgH-98gRfrbw5etAs-168" target="MuIGgH-98gRfrbw5etAs-166">
          <mxGeometry relative="1" as="geometry">
            <Array as="points">
              <mxPoint x="1990" y="3920" />
              <mxPoint x="1785" y="3920" />
              <mxPoint x="1785" y="3785" />
            </Array>
          </mxGeometry>
        </mxCell>
        <mxCell id="MuIGgH-98gRfrbw5etAs-168" value="&lt;div&gt;f1 &amp;lt;&amp;lt; s[i].name &amp;lt;&amp;lt; &quot; &quot; &amp;lt;&amp;lt; s[i].date_build &amp;lt;&amp;lt; &quot; &quot; &amp;lt;&amp;lt; s[i].cnt_pl &amp;lt;&amp;lt;&quot; &quot;&amp;lt;&amp;lt; s[i].sport &amp;lt;&amp;lt; endl;&lt;span style=&quot;&quot;&gt;&lt;/span&gt;&lt;/div&gt;&lt;div&gt;&lt;br&gt;&lt;/div&gt;" style="rounded=0;whiteSpace=wrap;html=1;" vertex="1" parent="1">
          <mxGeometry x="1805" y="3840" width="370" height="60" as="geometry" />
        </mxCell>
        <mxCell id="MuIGgH-98gRfrbw5etAs-172" value="return 0;}" style="ellipse;whiteSpace=wrap;html=1;" vertex="1" parent="1">
          <mxGeometry x="2180" y="3752.5" width="120" height="65" as="geometry" />
        </mxCell>
      </root>
    </mxGraphModel>
  </diagram>
</mxfile>
